<?xml version="1.0"?>
<svg xmlns="http://www.w3.org/2000/svg" xmlns:xlink="http://www.w3.org/1999/xlink" xmlns:svgjs="http://svgjs.com/svgjs" version="1.1" width="512" height="512" x="0" y="0" viewBox="0 0 512 512" style="enable-background:new 0 0 512 512" xml:space="preserve" class=""><g transform="matrix(1,-2.4492935982947064e-16,2.4492935982947064e-16,1,9.99999999999983,5.684341886080802e-14)"><path xmlns="http://www.w3.org/2000/svg" d="m224 488h-176a24 24 0 0 1 -24-24v-416a24 24 0 0 1 24-24h176a24 24 0 0 1 24 24v96a24 24 0 0 1 -48 0v-72h-128v368h128v-72a24 24 0 0 1 48 0v96a24 24 0 0 1 -24 24zm173.333-232-32-24h-205.333a24 24 0 0 0 0 48h205.333zm-46.933 115.2 128-96a24 24 0 0 0 0-38.4l-128-96a24 24 0 0 0 -28.8 38.4l102.4 76.8-102.4 76.8a24 24 0 1 0 28.8 38.4z" fill="#000000" data-original="#000000" style="" class=""/></g></svg>
