<?xml version="1.0"?>
<svg xmlns="http://www.w3.org/2000/svg" xmlns:xlink="http://www.w3.org/1999/xlink" xmlns:svgjs="http://svgjs.com/svgjs" version="1.1" width="512" height="512" x="0" y="0" viewBox="0 0 24 24" style="enable-background:new 0 0 512 512" xml:space="preserve"><rect width="24" height="24" rx="20" ry="20" fill="#ffffff" shape="rounded"/><g transform="matrix(0.7,0,0,0.7,3.5998500198125836,3.600000000000014)"><path xmlns="http://www.w3.org/2000/svg" d="m21.499 15c-.209 0-.419-.065-.599-.2-.442-.331-.532-.958-.2-1.4l1.05-1.4-1.05-1.4c-.332-.442-.242-1.069.2-1.4.441-.333 1.067-.242 1.399.2l1.5 2c.267.355.267.845 0 1.2l-1.5 2c-.195.262-.495.4-.8.4z" fill="#000000" data-original="#000000" style=""/><path xmlns="http://www.w3.org/2000/svg" d="m2.501 15c-.305 0-.604-.138-.801-.4l-1.5-2c-.267-.355-.267-.845 0-1.2l1.5-2c.331-.441.958-.532 1.4-.2.442.331.532.958.2 1.4l-1.05 1.4 1.05 1.4c.332.442.242 1.069-.2 1.4-.18.135-.39.2-.599.2z" fill="#000000" data-original="#000000" style=""/><path xmlns="http://www.w3.org/2000/svg" d="m16 22h-8c-1.654 0-3-1.346-3-3v-14c0-1.654 1.346-3 3-3h8c1.654 0 3 1.346 3 3v14c0 1.654-1.346 3-3 3zm-8-18c-.552 0-1 .449-1 1v14c0 .551.448 1 1 1h8c.552 0 1-.449 1-1v-14c0-.551-.448-1-1-1z" fill="#000000" data-original="#000000" style=""/></g></svg>
